<svg xmlns="http://www.w3.org/2000/svg" viewBox="0 0 64 64">
  <rect width="64" height="64" rx="14" fill="#ea1d2c"/>
  <g fill="#fff">
    <path d="M32 12c-9.4 0-17 6.8-17 15.2 0 .4.3.8.8.8h32.4c.5 0 .8-.4.8-.8C49 18.8 41.4 12 32 12zm-9 9.5a1.5 1.5 0 1 1 0-3 1.5 1.5 0 0 1 0 3zm9-4a1.5 1.5 0 1 1 0-3 1.5 1.5 0 0 1 0 3zm9 4a1.5 1.5 0 1 1 0-3 1.5 1.5 0 0 1 0 3z"/>
    <rect x="13" y="31" width="38" height="5" rx="2.5"/>
    <path d="M15 39h34c.6 0 1 .5.9 1.1l-1.2 7.1a6 6 0 0 1-5.9 5H21.2a6 6 0 0 1-5.9-5l-1.2-7.1c-.1-.6.3-1.1.9-1.1z"/>
  </g>
</svg>
